<?xml version="1.0" standalone="no"?>
<!DOCTYPE svg PUBLIC "-//W3C//DTD SVG 20010904//EN"
 "http://www.w3.org/TR/2001/REC-SVG-20010904/DTD/svg10.dtd">
<svg version="1.0" xmlns="http://www.w3.org/2000/svg"
 width="309.000000pt" height="309.000000pt" viewBox="0 0 309.000000 309.000000"
 preserveAspectRatio="xMidYMid meet">
<metadata>
Created by potrace 1.14, written by Peter Selinger 2001-2017
</metadata>
<g transform="translate(0.000000,309.000000) scale(0.100000,-0.100000)"
fill="#000000" stroke="none">
<path d="M0 1545 l0 -1545 1545 0 1545 0 0 1545 0 1545 -1545 0 -1545 0 0
-1545z m1859 1450 c149 -36 218 -60 333 -116 168 -83 270 -158 414 -305 173
-177 296 -392 362 -634 39 -141 44 -201 40 -433 -5 -193 -8 -231 -27 -292 -12
-38 -29 -95 -38 -125 -22 -81 -124 -277 -192 -373 -167 -235 -423 -436 -671
-527 -47 -18 -94 -36 -105 -40 -11 -5 -74 -20 -139 -34 -102 -22 -145 -26
-291 -26 -148 0 -188 4 -286 25 -210 47 -385 124 -554 244 -251 178 -453 444
-543 716 -68 207 -65 184 -70 440 -5 271 1 325 55 485 129 387 393 694 753
875 116 58 164 75 320 116 98 25 120 27 319 28 195 1 222 -1 320 -24z"/>
<path d="M1445 2340 c-278 -25 -486 -161 -592 -387 -60 -129 -77 -224 -77
-423 -1 -151 3 -187 23 -265 74 -287 252 -468 526 -537 75 -19 118 -22 255
-23 146 0 174 3 240 23 166 52 290 137 374 256 42 59 101 165 94 170 -5 5
-275 106 -281 106 -3 0 -20 -28 -38 -61 -51 -95 -110 -154 -198 -196 -74 -37
-79 -38 -191 -38 -164 0 -231 24 -321 114 -110 111 -149 229 -149 451 0 216
42 345 146 446 148 145 461 145 621 0 22 -19 54 -62 72 -95 31 -59 32 -59 64
-50 48 14 167 46 214 59 l42 11 -20 52 c-28 72 -102 179 -152 222 -60 52 -156
104 -243 131 -63 20 -262 47 -314 42 -8 0 -51 -4 -95 -8z"/>
</g>
</svg>
